{
  "accessors": [
    {
      "bufferView": 2,
      "componentType": 5126,
      "count": 528,
      "max": [
        1.0,
        1.0,
        0.19119173288345337
      ],
      "min": [
        -1.0,
        -1.0,
        0.0
      ],
      "type": "VEC3"
    },
    {
      "bufferView": 2,
      "byteOffset": 6336,
      "componentType": 5126,
      "count": 528,
      "max": [
        1.0,
        1.0,
        1.0
      ],
      "min": [
        -1.0,
        -1.0,
        -1.0
      ],
      "type": "VEC3"
    },
    {
      "bufferView": 1,
      "componentType": 5126,
      "count": 528,
      "max": [
        1.0,
        1.0
      ],
      "min": [
        0.0,
        0.0
      ],
      "type": "VEC2"
    },
    {
      "bufferView": 0,
      "componentType": 5125,
      "count": 1044,
      "type": "SCALAR"
    },
    {
      "bufferView": 2,
      "byteOffset": 12672,
      "componentType": 5126,
      "count": 1332,
      "max": [
        1.8929036855697632,
        0.2627597451210022,
        0.8408553004264832
      ],
      "min": [
        -0.2627597451210022,
        -1.7872464656829834,
        -0.7307125926017761
      ],
      "type": "VEC3"
    },
    {
      "bufferView": 2,
      "byteOffset": 28656,
      "componentType": 5126,
      "count": 1332,
      "max": [
        0.9382144212722778,
        0.9382144212722778,
        0.6984995603561401
      ],
      "min": [
        -0.9382144212722778,
        -0.9382144212722778,
        -0.9922863841056824
      ],
      "type": "VEC3"
    },
    {
      "bufferView": 1,
      "byteOffset": 4224,
      "componentType": 5126,
      "count": 1332,
      "max": [
        1.0,
        1.0
      ],
      "min": [
        0.0,
        0.01000000536441803
      ],
      "type": "VEC2"
    },
    {
      "bufferView": 0,
      "byteOffset": 4176,
      "componentType": 5125,
      "count": 6864,
      "type": "SCALAR"
    },
    {
      "bufferView": 2,
      "byteOffset": 44640,
      "componentType": 5126,
      "count": 72,
      "max": [
        0.5549060106277466,
        0.3129020929336548,
        -0.5424695014953613
      ],
      "min": [
        -0.7004187703132629,
        -1.6220065355300903,
        -0.7772226333618164
      ],
      "type": "VEC3"
    },
    {
      "bufferView": 2,
      "byteOffset": 45504,
      "componentType": 5126,
      "count": 72,
      "max": [
        1.0,
        0.9999459981918335,
        0.9999257326126099
      ],
      "min": [
        -1.0,
        -0.9999459981918335,
        -0.9999257326126099
      ],
      "type": "VEC3"
    },
    {
      "bufferView": 1,
      "byteOffset": 14880,
      "componentType": 5126,
      "count": 72,
      "max": [
        1.0,
        1.0
      ],
      "min": [
        0.0,
        0.0
      ],
      "type": "VEC2"
    },
    {
      "bufferView": 0,
      "byteOffset": 31632,
      "componentType": 5125,
      "count": 108,
      "type": "SCALAR"
    },
    {
      "bufferView": 2,
      "byteOffset": 46368,
      "componentType": 5126,
      "count": 692,
      "max": [
        0.977302074432373,
        1.0,
        0.2828723192214966
      ],
      "min": [
        -0.9889183044433594,
        -1.0000001192092896,
        -2.5688535743029206e-08
      ],
      "type": "VEC3"
    },
    {
      "bufferView": 2,
      "byteOffset": 54672,
      "componentType": 5126,
      "count": 692,
      "max": [
        0.9966534972190857,
        1.0,
        0.9999814629554749
      ],
      "min": [
        -0.996660590171814,
        -1.0,
        -0.9999814629554749
      ],
      "type": "VEC3"
    },
    {
      "bufferView": 1,
      "byteOffset": 15456,
      "componentType": 5126,
      "count": 692,
      "max": [
        1.0,
        1.0
      ],
      "min": [
        0.0,
        -0.000260428263572976
      ],
      "type": "VEC2"
    },
    {
      "bufferView": 0,
      "byteOffset": 32064,
      "componentType": 5125,
      "count": 1356,
      "type": "SCALAR"
    }
  ],
  "asset": {
    "extras": {
      "author": "crisvedharaj (https://sketchfab.com/crisvedharaj)",
      "license": "CC-BY-4.0 (http://creativecommons.org/licenses/by/4.0/)",
      "source": "https://sketchfab.com/3d-models/toy-chair-ee87bd3b247f4ccab78889b0dd35e59a",
      "title": "Toy_Chair"
    },
    "generator": "Sketchfab-12.65.0",
    "version": "2.0"
  },
  "bufferViews": [
    {
      "buffer": 0,
      "byteLength": 37488,
      "name": "floatBufferViews",
      "target": 34963
    },
    {
      "buffer": 0,
      "byteLength": 20992,
      "byteOffset": 37488,
      "byteStride": 8,
      "name": "floatBufferViews",
      "target": 34962
    },
    {
      "buffer": 0,
      "byteLength": 62976,
      "byteOffset": 58480,
      "byteStride": 12,
      "name": "floatBufferViews",
      "target": 34962
    }
  ],
  "buffers": [
    {
      "byteLength": 121456,
      "uri": "scene.bin"
    }
  ],
  "extensionsRequired": [
    "KHR_materials_pbrSpecularGlossiness"
  ],
  "extensionsUsed": [
    "KHR_materials_pbrSpecularGlossiness"
  ],
  "images": [
    {
      "uri": "textures/Material.001_diffuse.png"
    }
  ],
  "materials": [
    {
      "doubleSided": true,
      "extensions": {
        "KHR_materials_pbrSpecularGlossiness": {
          "diffuseFactor": [
            1.0,
            1.0,
            1.0,
            1.0
          ],
          "diffuseTexture": {
            "index": 0
          },
          "glossinessFactor": 0.19595917942265426,
          "specularFactor": [
            0.0,
            0.0,
            0.0
          ]
        }
      },
      "name": "Material.001"
    },
    {
      "doubleSided": true,
      "extensions": {
        "KHR_materials_pbrSpecularGlossiness": {
          "diffuseFactor": [
            0.6158075381986879,
            0.6158075381986879,
            0.6158075381986879,
            1.0
          ],
          "diffuseTexture": {
            "index": 0
          },
          "glossinessFactor": 0.6699606004779016,
          "specularFactor": [
            0.0,
            0.0,
            0.0
          ]
        }
      },
      "name": "Material.005"
    },
    {
      "doubleSided": true,
      "extensions": {
        "KHR_materials_pbrSpecularGlossiness": {
          "diffuseFactor": [
            1.0,
            1.0,
            1.0,
            1.0
          ],
          "diffuseTexture": {
            "index": 0
          },
          "glossinessFactor": 0.19595917942265426,
          "specularFactor": [
            0.0,
            0.0,
            0.0
          ]
        }
      },
      "name": "Material.002"
    }
  ],
  "meshes": [
    {
      "name": "Chair_Body_Material.001_0",
      "primitives": [
        {
          "attributes": {
            "NORMAL": 1,
            "POSITION": 0,
            "TEXCOORD_0": 2
          },
          "indices": 3,
          "material": 0,
          "mode": 4
        }
      ]
    },
    {
      "name": "Chair_Leg_Material.005_0",
      "primitives": [
        {
          "attributes": {
            "NORMAL": 5,
            "POSITION": 4,
            "TEXCOORD_0": 6
          },
          "indices": 7,
          "material": 1,
          "mode": 4
        }
      ]
    },
    {
      "name": "Chair_Neck_Material.002_0",
      "primitives": [
        {
          "attributes": {
            "NORMAL": 9,
            "POSITION": 8,
            "TEXCOORD_0": 10
          },
          "indices": 11,
          "material": 2,
          "mode": 4
        }
      ]
    },
    {
      "name": "Chair_Head_Material.002_0",
      "primitives": [
        {
          "attributes": {
            "NORMAL": 13,
            "POSITION": 12,
            "TEXCOORD_0": 14
          },
          "indices": 15,
          "material": 2,
          "mode": 4
        }
      ]
    }
  ],
  "nodes": [
    {
      "children": [
        1
      ],
      "matrix": [
        0.4000000059604645,
        0.0,
        0.0,
        0.0,
        0.0,
        8.88178432935015e-17,
        -0.4000000059604645,
        0.0,
        0.0,
        0.4000000059604645,
        8.88178432935015e-17,
        0.0,
        0.0,
        0.0,
        0.0,
        1.0
      ],
      "name": "Sketchfab_model"
    },
    {
      "children": [
        2
      ],
      "matrix": [
        0.009999999776482582,
        0.0,
        0.0,
        0.0,
        0.0,
        0.0,
        0.009999999776482582,
        0.0,
        0.0,
        -0.009999999776482582,
        0.0,
        0.0,
        0.0,
        0.0,
        0.0,
        1.0
      ],
      "name": "a602e5b6bfcb49918773f99f417e036a.fbx"
    },
    {
      "children": [
        3,
        5,
        7,
        9
      ],
      "name": "RootNode"
    },
    {
      "children": [
        4
      ],
      "matrix": [
        -64.58396909179484,
        7.67540652159938e-15,
        7.915390057246657,
        0.0,
        7.91539005724665,
        -2.844178413690209e-06,
        64.58396909179478,
        0.0,
        3.459927102137049e-07,
        65.06721496582026,
        2.82305505923851e-06,
        0.0,
        -31.115318298339844,
        102.82444763183594,
        12.31741714477539,
        1.0
      ],
      "name": "Chair_Body"
    },
    {
      "mesh": 0,
      "name": "Chair_Body_Material.001_0"
    },
    {
      "children": [
        6
      ],
      "matrix": [
        -58.2107540584608,
        6.917989210178331e-15,
        7.13429091427131,
        0.0,
        7.134290914271303,
        -2.563511850787411e-06,
        58.21075405846074,
        0.0,
        3.53389705091576e-07,
        66.4582901000976,
        2.8834092898239965e-06,
        0.0,
        21.768707275390625,
        48.7802848815918,
        50.87321853637695,
        1.0
      ],
      "name": "Chair_Leg"
    },
    {
      "mesh": 1,
      "name": "Chair_Leg_Material.005_0"
    },
    {
      "children": [
        8
      ],
      "matrix": [
        -74.3541791752632,
        9.105760762474484e-15,
        9.112823798768149,
        0.0,
        -2.285843296192798e-07,
        42.98746109008785,
        -1.8650860554222934e-06,
        0.0,
        -1.636158915152719,
        -5.879087800229028e-07,
        -13.349896346389865,
        0.0,
        -38.577354431152344,
        177.8201141357422,
        -48.024566650390625,
        1.0
      ],
      "name": "Chair_Neck"
    },
    {
      "mesh": 2,
      "name": "Chair_Neck_Material.002_0"
    },
    {
      "children": [
        10
      ],
      "matrix": [
        -71.76652746756753,
        -8.788864829229741e-15,
        8.744452373357014,
        0.0,
        -2.2587311755750986e-07,
        42.722770690917926,
        -1.8537614738781384e-06,
        0.0,
        -5.878055605715632,
        -2.1243093803547e-06,
        -48.2417447167743,
        0.0,
        -34.00242233276367,
        231.81729125976563,
        -30.891660690307617,
        1.0
      ],
      "name": "Chair_Head"
    },
    {
      "mesh": 3,
      "name": "Chair_Head_Material.002_0"
    }
  ],
  "samplers": [
    {
      "magFilter": 9729,
      "minFilter": 9987,
      "wrapS": 10497,
      "wrapT": 10497
    }
  ],
  "scene": 0,
  "scenes": [
    {
      "name": "Sketchfab_Scene",
      "nodes": [
        0
      ]
    }
  ],
  "textures": [
    {
      "sampler": 0,
      "source": 0
    }
  ]
}
