{
  "accessors": [
    {
      "bufferView": 2,
      "componentType": 5126,
      "count": 65532,
      "max": [
        5.969198226928711,
        5.739220142364502,
        4.063027858734131
      ],
      "min": [
        -9.507570266723633,
        -16.078643798828125,
        -5.304288864135742
      ],
      "type": "VEC3"
    },
    {
      "bufferView": 2,
      "byteOffset": 786384,
      "componentType": 5126,
      "count": 65532,
      "max": [
        0.9999785423278809,
        0.9999310970306396,
        0.9998524785041809
      ],
      "min": [
        -0.9999762177467346,
        -0.999984860420227,
        -0.9999892115592957
      ],
      "type": "VEC3"
    },
    {
      "bufferView": 1,
      "componentType": 5126,
      "count": 65532,
      "max": [
        0.9964100122451782,
        0.9964100122451782
      ],
      "min": [
        0.003961999900639057,
        0.0039610001258552074
      ],
      "type": "VEC2"
    },
    {
      "bufferView": 0,
      "componentType": 5125,
      "count": 352905,
      "type": "SCALAR"
    },
    {
      "bufferView": 2,
      "byteOffset": 1572768,
      "componentType": 5126,
      "count": 65532,
      "max": [
        5.687074184417725,
        5.7627058029174805,
        8.402877807617188
      ],
      "min": [
        -7.943809986114502,
        -37.72852325439453,
        -6.823525905609131
      ],
      "type": "VEC3"
    },
    {
      "bufferView": 2,
      "byteOffset": 2359152,
      "componentType": 5126,
      "count": 65532,
      "max": [
        0.9999647736549377,
        0.9999332427978516,
        0.999984622001648
      ],
      "min": [
        -0.9999902248382568,
        -0.999999463558197,
        -0.9999960064888
      ],
      "type": "VEC3"
    },
    {
      "bufferView": 1,
      "byteOffset": 524256,
      "componentType": 5126,
      "count": 65532,
      "max": [
        0.9969050288200378,
        0.9976480007171631
      ],
      "min": [
        0.003961999900639057,
        0.0039610001258552074
      ],
      "type": "VEC2"
    },
    {
      "bufferView": 0,
      "byteOffset": 1411620,
      "componentType": 5125,
      "count": 343833,
      "type": "SCALAR"
    },
    {
      "bufferView": 2,
      "byteOffset": 3145536,
      "componentType": 5126,
      "count": 65532,
      "max": [
        5.659457206726074,
        5.35896110534668,
        11.348236083984375
      ],
      "min": [
        -9.801615715026855,
        -37.524227142333984,
        -7.006008148193359
      ],
      "type": "VEC3"
    },
    {
      "bufferView": 2,
      "byteOffset": 3931920,
      "componentType": 5126,
      "count": 65532,
      "max": [
        0.9999929070472717,
        0.999933123588562,
        0.9999973773956299
      ],
      "min": [
        -0.999954879283905,
        -0.9999244809150696,
        -0.9999819993972778
      ],
      "type": "VEC3"
    },
    {
      "bufferView": 1,
      "byteOffset": 1048512,
      "componentType": 5126,
      "count": 65532,
      "max": [
        0.9965329766273499,
        0.9980189800262451
      ],
      "min": [
        0.003961999900639057,
        0.0039610001258552074
      ],
      "type": "VEC2"
    },
    {
      "bufferView": 0,
      "byteOffset": 2786952,
      "componentType": 5125,
      "count": 344466,
      "type": "SCALAR"
    },
    {
      "bufferView": 2,
      "byteOffset": 4718304,
      "componentType": 5126,
      "count": 22609,
      "max": [
        5.839395999908447,
        -4.8645148277282715,
        4.0856828689575195
      ],
      "min": [
        -9.97579574584961,
        -16.165573120117188,
        -4.8783488273620605
      ],
      "type": "VEC3"
    },
    {
      "bufferView": 2,
      "byteOffset": 4989612,
      "componentType": 5126,
      "count": 22609,
      "max": [
        0.9999867677688599,
        0.9995932579040527,
        0.9828305840492249
      ],
      "min": [
        -0.9999828934669495,
        -0.9998089075088501,
        -0.9999909996986389
      ],
      "type": "VEC3"
    },
    {
      "bufferView": 1,
      "byteOffset": 1572768,
      "componentType": 5126,
      "count": 22609,
      "max": [
        0.9980189800262451,
        0.9980189800262451
      ],
      "min": [
        0.003961999900639057,
        0.0039610001258552074
      ],
      "type": "VEC2"
    },
    {
      "bufferView": 0,
      "byteOffset": 4164816,
      "componentType": 5125,
      "count": 118434,
      "type": "SCALAR"
    }
  ],
  "asset": {
    "extras": {
      "author": "Geoffrey Marchal (https://sketchfab.com/geoffreymarchal)",
      "license": "CC-BY-NC-SA-4.0 (http://creativecommons.org/licenses/by-nc-sa/4.0/)",
      "source": "https://sketchfab.com/3d-models/leda-and-the-swan-b9680393f9d2433694f5b3c432cf6094",
      "title": "Leda and the Swan"
    },
    "generator": "Sketchfab-15.12.0",
    "version": "2.0"
  },
  "bufferViews": [
    {
      "buffer": 0,
      "byteLength": 4638552,
      "name": "floatBufferViews",
      "target": 34963
    },
    {
      "buffer": 0,
      "byteLength": 1753640,
      "byteOffset": 4638552,
      "byteStride": 8,
      "name": "floatBufferViews",
      "target": 34962
    },
    {
      "buffer": 0,
      "byteLength": 5260920,
      "byteOffset": 6392192,
      "byteStride": 12,
      "name": "floatBufferViews",
      "target": 34962
    }
  ],
  "buffers": [
    {
      "byteLength": 11653112,
      "uri": "scene.bin"
    }
  ],
  "extensionsUsed": [
    "KHR_materials_specular"
  ],
  "images": [
    {
      "uri": "textures/Material_0_baseColor.jpeg"
    },
    {
      "uri": "textures/Material_0_metallicRoughness.png"
    },
    {
      "uri": "textures/Material_0_specularf0.png"
    }
  ],
  "materials": [
    {
      "doubleSided": true,
      "extensions": {
        "KHR_materials_specular": {
          "specularColorFactor": [
            1.0,
            1.0,
            1.0
          ],
          "specularFactor": 1.0,
          "specularTexture": {
            "index": 2
          }
        }
      },
      "name": "Material_0",
      "pbrMetallicRoughness": {
        "baseColorTexture": {
          "index": 0
        },
        "metallicFactor": 0.0,
        "metallicRoughnessTexture": {
          "index": 1
        }
      }
    }
  ],
  "meshes": [
    {
      "name": "Object_0",
      "primitives": [
        {
          "attributes": {
            "NORMAL": 1,
            "POSITION": 0,
            "TEXCOORD_0": 2
          },
          "indices": 3,
          "material": 0,
          "mode": 4
        }
      ]
    },
    {
      "name": "Object_1",
      "primitives": [
        {
          "attributes": {
            "NORMAL": 5,
            "POSITION": 4,
            "TEXCOORD_0": 6
          },
          "indices": 7,
          "material": 0,
          "mode": 4
        }
      ]
    },
    {
      "name": "Object_2",
      "primitives": [
        {
          "attributes": {
            "NORMAL": 9,
            "POSITION": 8,
            "TEXCOORD_0": 10
          },
          "indices": 11,
          "material": 0,
          "mode": 4
        }
      ]
    },
    {
      "name": "Object_3",
      "primitives": [
        {
          "attributes": {
            "NORMAL": 13,
            "POSITION": 12,
            "TEXCOORD_0": 14
          },
          "indices": 15,
          "material": 0,
          "mode": 4
        }
      ]
    }
  ],
  "nodes": [
    {
      "children": [
        1
      ],
      "matrix": [
        0.8153088092803955,
        -1.2856968846074196e-16,
        0.5790264010429382,
        0.0,
        0.0,
        -1.0,
        -2.220446049250313e-16,
        0.0,
        0.5790264010429382,
        1.8103492244856312e-16,
        -0.8153088092803955,
        0.0,
        0.0,
        0.0,
        0.0,
        1.0
      ],
      "name": "Sketchfab_model"
    },
    {
      "children": [
        2,
        3,
        4,
        5
      ],
      "name": "leda.obj.cleaner.gles"
    },
    {
      "mesh": 0,
      "name": "Object_2"
    },
    {
      "mesh": 1,
      "name": "Object_3"
    },
    {
      "mesh": 2,
      "name": "Object_4"
    },
    {
      "mesh": 3,
      "name": "Object_5"
    }
  ],
  "samplers": [
    {
      "magFilter": 9729,
      "minFilter": 9987,
      "wrapS": 10497,
      "wrapT": 10497
    }
  ],
  "scene": 0,
  "scenes": [
    {
      "name": "Sketchfab_Scene",
      "nodes": [
        0
      ]
    }
  ],
  "textures": [
    {
      "sampler": 0,
      "source": 0
    },
    {
      "sampler": 0,
      "source": 1
    },
    {
      "sampler": 0,
      "source": 2
    }
  ]
}
