{
  "accessors": [
    {
      "bufferView": 2,
      "componentType": 5126,
      "count": 30850,
      "max": [
        1.4618339538574219,
        1.0382097959518433,
        2.2003843784332275
      ],
      "min": [
        -1.987025260925293,
        -0.048939019441604614,
        -1.7339160442352295
      ],
      "type": "VEC3"
    },
    {
      "bufferView": 2,
      "byteOffset": 370200,
      "componentType": 5126,
      "count": 30850,
      "max": [
        0.9967669248580933,
        0.9999998807907104,
        0.9999216794967651
      ],
      "min": [
        -0.9999129772186279,
        -0.9996685981750488,
        -0.996147096157074
      ],
      "type": "VEC3"
    },
    {
      "bufferView": 1,
      "componentType": 5126,
      "count": 30850,
      "max": [
        0.9916210174560547,
        0.99167400598526
      ],
      "min": [
        0.0081599997356534,
        0.008063971996307373
      ],
      "type": "VEC2"
    },
    {
      "bufferView": 1,
      "byteOffset": 246800,
      "componentType": 5126,
      "count": 30850,
      "max": [
        0.0,
        1.0
      ],
      "min": [
        0.0,
        1.0
      ],
      "type": "VEC2"
    },
    {
      "bufferView": 0,
      "componentType": 5125,
      "count": 159900,
      "type": "SCALAR"
    },
    {
      "bufferView": 2,
      "byteOffset": 740400,
      "componentType": 5126,
      "count": 21250,
      "max": [
        1.4618339538574219,
        1.0382351875305176,
        2.2003843784332275
      ],
      "min": [
        -1.987025260925293,
        -0.027650460600852966,
        -1.7339160442352295
      ],
      "type": "VEC3"
    },
    {
      "bufferView": 2,
      "byteOffset": 995400,
      "componentType": 5126,
      "count": 21250,
      "max": [
        0.9998981952667236,
        0.9999996423721313,
        0.9998624920845032
      ],
      "min": [
        -0.9999604225158691,
        -0.9946938157081604,
        -0.9999988675117493
      ],
      "type": "VEC3"
    },
    {
      "bufferView": 1,
      "byteOffset": 493600,
      "componentType": 5126,
      "count": 21250,
      "max": [
        0.9916049838066101,
        0.8063539862632751
      ],
      "min": [
        0.008077999576926231,
        0.008069992065429688
      ],
      "type": "VEC2"
    },
    {
      "bufferView": 1,
      "byteOffset": 663600,
      "componentType": 5126,
      "count": 21250,
      "max": [
        0.0,
        1.0
      ],
      "min": [
        0.0,
        1.0
      ],
      "type": "VEC2"
    },
    {
      "bufferView": 0,
      "byteOffset": 639600,
      "componentType": 5125,
      "count": 101499,
      "type": "SCALAR"
    }
  ],
  "asset": {
    "extras": {
      "author": "seirogan (https://sketchfab.com/seirogan)",
      "license": "CC-BY-4.0 (http://creativecommons.org/licenses/by/4.0/)",
      "source": "https://sketchfab.com/3d-models/burger-kings-avocado-whopper-e10435383cff495e822c706a40217b1f",
      "title": "Burger King's Avocado Whopper"
    },
    "generator": "Sketchfab-12.66.0",
    "version": "2.0"
  },
  "bufferViews": [
    {
      "buffer": 0,
      "byteLength": 1045596,
      "name": "floatBufferViews",
      "target": 34963
    },
    {
      "buffer": 0,
      "byteLength": 833600,
      "byteOffset": 1045596,
      "byteStride": 8,
      "name": "floatBufferViews",
      "target": 34962
    },
    {
      "buffer": 0,
      "byteLength": 1250400,
      "byteOffset": 1879196,
      "byteStride": 12,
      "name": "floatBufferViews",
      "target": 34962
    }
  ],
  "buffers": [
    {
      "byteLength": 3129596,
      "uri": "scene.bin"
    }
  ],
  "extensionsUsed": [
    "KHR_materials_unlit"
  ],
  "images": [
    {
      "uri": "textures/material0000_baseColor.jpeg"
    },
    {
      "uri": "textures/material0001_baseColor.jpeg"
    }
  ],
  "materials": [
    {
      "doubleSided": true,
      "extensions": {
        "KHR_materials_unlit": {}
      },
      "name": "material0000",
      "pbrMetallicRoughness": {
        "baseColorTexture": {
          "index": 0
        },
        "metallicFactor": 0.0
      }
    },
    {
      "doubleSided": true,
      "extensions": {
        "KHR_materials_unlit": {}
      },
      "name": "material0001",
      "pbrMetallicRoughness": {
        "baseColorTexture": {
          "index": 1
        },
        "metallicFactor": 0.0
      }
    }
  ],
  "meshes": [
    {
      "name": "Object_0",
      "primitives": [
        {
          "attributes": {
            "NORMAL": 1,
            "POSITION": 0,
            "TEXCOORD_0": 2,
            "TEXCOORD_1": 3
          },
          "indices": 4,
          "material": 0,
          "mode": 4
        }
      ]
    },
    {
      "name": "Object_1",
      "primitives": [
        {
          "attributes": {
            "NORMAL": 6,
            "POSITION": 5,
            "TEXCOORD_0": 7,
            "TEXCOORD_1": 8
          },
          "indices": 9,
          "material": 1,
          "mode": 4
        }
      ]
    }
  ],
  "nodes": [
    {
      "children": [
        1
      ],
      "matrix": [
        1.0,
        0.0,
        0.0,
        0.0,
        0.0,
        2.220446049250313e-16,
        -1.0,
        0.0,
        0.0,
        1.0,
        2.220446049250313e-16,
        0.0,
        0.0,
        0.0,
        0.0,
        1.0
      ],
      "name": "Sketchfab_model"
    },
    {
      "children": [
        2
      ],
      "name": "root"
    },
    {
      "children": [
        3
      ],
      "matrix": [
        1.0,
        0.0,
        0.0,
        0.0,
        0.0,
        2.220446049250313e-16,
        1.0,
        0.0,
        0.0,
        -1.0,
        2.220446049250313e-16,
        0.0,
        0.0,
        0.0,
        0.0,
        1.0
      ],
      "name": "GLTF_SceneRootNode"
    },
    {
      "children": [
        4,
        5
      ],
      "name": "model_1"
    },
    {
      "mesh": 0,
      "name": "Object_4"
    },
    {
      "mesh": 1,
      "name": "Object_5"
    }
  ],
  "samplers": [
    {
      "magFilter": 9729,
      "minFilter": 9987,
      "wrapS": 10497,
      "wrapT": 10497
    }
  ],
  "scene": 0,
  "scenes": [
    {
      "name": "Sketchfab_Scene",
      "nodes": [
        0
      ]
    }
  ],
  "textures": [
    {
      "sampler": 0,
      "source": 0
    },
    {
      "sampler": 0,
      "source": 1
    }
  ]
}
