{
  "accessors": [
    {
      "bufferView": 2,
      "componentType": 5126,
      "count": 1477,
      "max": [
        143.35369873046875,
        91.50003051757813,
        397.3581237792969
      ],
      "min": [
        -21.5,
        -91.50003051757813,
        -1.9073486328125e-06
      ],
      "type": "VEC3"
    },
    {
      "bufferView": 2,
      "byteOffset": 17724,
      "componentType": 5126,
      "count": 1477,
      "max": [
        0.999984860420227,
        0.999984622001648,
        0.9999848008155823
      ],
      "min": [
        -0.999984622001648,
        -0.9999848008155823,
        -0.999984622001648
      ],
      "type": "VEC3"
    },
    {
      "bufferView": 3,
      "componentType": 5126,
      "count": 1477,
      "max": [
        0.9999924898147583,
        0.9999925494194031,
        0.9999925494194031,
        1.0
      ],
      "min": [
        -0.9999925494194031,
        -0.9999924898147583,
        -0.9999924302101135,
        1.0
      ],
      "type": "VEC4"
    },
    {
      "bufferView": 1,
      "componentType": 5126,
      "count": 1477,
      "max": [
        0.9892578125,
        0.9942665100097656
      ],
      "min": [
        0.0099945068359375,
        0.00390625
      ],
      "type": "VEC2"
    },
    {
      "bufferView": 1,
      "byteOffset": 11816,
      "componentType": 5126,
      "count": 1477,
      "max": [
        0.9892578125,
        0.9942665100097656
      ],
      "min": [
        0.0099945068359375,
        0.00390625
      ],
      "type": "VEC2"
    },
    {
      "bufferView": 0,
      "componentType": 5125,
      "count": 4764,
      "type": "SCALAR"
    }
  ],
  "asset": {
    "extras": {
      "author": "Valger (https://sketchfab.com/Valger)",
      "license": "CC-BY-NC-ND-4.0 (http://creativecommons.org/licenses/by-nc-nd/4.0/)",
      "source": "https://sketchfab.com/3d-models/contractors-showdown-battle-royale-basketball-0e75fa57dd904c6b841cf4d2fa650350",
      "title": "Contractors Showdown Battle Royale Basketball"
    },
    "generator": "Sketchfab-16.85.0",
    "version": "2.0"
  },
  "bufferViews": [
    {
      "buffer": 0,
      "byteLength": 19056,
      "name": "floatBufferViews",
      "target": 34963
    },
    {
      "buffer": 0,
      "byteLength": 23632,
      "byteOffset": 19056,
      "byteStride": 8,
      "name": "floatBufferViews",
      "target": 34962
    },
    {
      "buffer": 0,
      "byteLength": 35448,
      "byteOffset": 42688,
      "byteStride": 12,
      "name": "floatBufferViews",
      "target": 34962
    },
    {
      "buffer": 0,
      "byteLength": 23632,
      "byteOffset": 78136,
      "byteStride": 16,
      "name": "floatBufferViews",
      "target": 34962
    }
  ],
  "buffers": [
    {
      "byteLength": 101768,
      "uri": "scene.bin"
    }
  ],
  "images": [
    {
      "uri": "textures/MI_Basketball_baseColor.png"
    },
    {
      "uri": "textures/MI_Basketball_metallicRoughness.png"
    },
    {
      "uri": "textures/MI_Basketball_normal.png"
    }
  ],
  "materials": [
    {
      "doubleSided": true,
      "name": "MI_Basketball",
      "normalTexture": {
        "index": 2
      },
      "occlusionTexture": {
        "index": 1
      },
      "pbrMetallicRoughness": {
        "baseColorTexture": {
          "index": 0
        },
        "metallicFactor": 0.0,
        "metallicRoughnessTexture": {
          "index": 1
        },
        "roughnessFactor": 0.8211145618000169
      }
    }
  ],
  "meshes": [
    {
      "name": "SM_Basketball_Backboard.001_MI_Basketball_0",
      "primitives": [
        {
          "attributes": {
            "NORMAL": 1,
            "POSITION": 0,
            "TANGENT": 2,
            "TEXCOORD_0": 3,
            "TEXCOORD_1": 4
          },
          "indices": 5,
          "material": 0,
          "mode": 4
        }
      ]
    }
  ],
  "nodes": [
    {
      "children": [
        1
      ],
      "matrix": [
        1.0,
        0.0,
        0.0,
        0.0,
        0.0,
        2.220446049250313e-16,
        -1.0,
        0.0,
        0.0,
        1.0,
        2.220446049250313e-16,
        0.0,
        0.0,
        0.0,
        0.0,
        1.0
      ],
      "name": "Sketchfab_model"
    },
    {
      "children": [
        2
      ],
      "matrix": [
        0.009999999776482582,
        0.0,
        0.0,
        0.0,
        0.0,
        0.0,
        0.009999999776482582,
        0.0,
        0.0,
        -0.009999999776482582,
        0.0,
        0.0,
        0.0,
        0.0,
        0.0,
        1.0
      ],
      "name": "basketball.fbx"
    },
    {
      "children": [
        3
      ],
      "name": "RootNode"
    },
    {
      "children": [
        4
      ],
      "matrix": [
        100.0,
        0.0,
        0.0,
        0.0,
        0.0,
        -1.629206793918314e-05,
        -99.99999999999868,
        0.0,
        0.0,
        99.99999999999868,
        -1.629206793918314e-05,
        0.0,
        0.0,
        0.0,
        0.0,
        1.0
      ],
      "name": "SM_Basketball_Backboard.001"
    },
    {
      "mesh": 0,
      "name": "SM_Basketball_Backboard.001_MI_Basketball_0"
    }
  ],
  "samplers": [
    {
      "magFilter": 9729,
      "minFilter": 9987,
      "wrapS": 10497,
      "wrapT": 10497
    }
  ],
  "scene": 0,
  "scenes": [
    {
      "name": "Sketchfab_Scene",
      "nodes": [
        0
      ]
    }
  ],
  "textures": [
    {
      "sampler": 0,
      "source": 0
    },
    {
      "sampler": 0,
      "source": 1
    },
    {
      "sampler": 0,
      "source": 2
    }
  ]
}
